<?xml version="1.0" standalone="no"?><!DOCTYPE svg PUBLIC "-//W3C//DTD SVG 1.1//EN" "http://www.w3.org/Graphics/SVG/1.1/DTD/svg11.dtd"><svg t="1750320391697" class="icon" viewBox="0 0 1070 1024" version="1.1" xmlns="http://www.w3.org/2000/svg" p-id="6960" xmlns:xlink="http://www.w3.org/1999/xlink" width="208.984375" height="200"><path d="M876.683636 1014.737455H175.848727a153.320727 153.320727 0 0 1-153.181091-153.134546V160.721455a153.320727 153.320727 0 0 1 153.134546-153.134546h350.487273a50.362182 50.362182 0 1 1 0 100.770909h-350.487273c-28.858182 0-52.363636 23.458909-52.363637 52.363637v700.881454c0 28.858182 23.458909 52.363636 52.410182 52.363636h700.834909c28.858182 0 52.363636-23.458909 52.363637-52.363636v-350.487273a50.362182 50.362182 0 1 1 100.817454 0v350.487273a153.320727 153.320727 0 0 1-153.181091 153.134546z" fill="#1296db" p-id="6961"></path><path d="M475.089455 799.650909c-2.141091 0-4.142545-0.139636-6.237091-0.372364l-158.72-19.828363a50.269091 50.269091 0 0 1-43.659637-43.659637l-19.828363-158.72c-1.861818-15.453091 3.397818-30.906182 14.382545-41.890909l442.042182-442.042181a154.763636 154.763636 0 0 1 218.670545 0l31.045819 30.999272c29.277091 29.184 45.335273 67.956364 45.335272 109.381818a153.6 153.6 0 0 1-45.335272 109.428364l-442.042182 441.949091a50.408727 50.408727 0 0 1-35.653818 14.754909z m-113.617455-115.293091l95.325091 11.915637 424.587636-424.587637a53.666909 53.666909 0 0 0 0-76.241454l-31.045818-31.045819a53.992727 53.992727 0 0 0-76.194909 0L349.556364 588.986182l11.915636 95.371636z" fill="#1296db" p-id="6962"></path></svg>